# Blender v2.67 (sub 0) OBJ File: ''
# www.blender.org
mtllib Constructor.mtl
o Figure_1
v -0.766924 0.554247 -0.552658
v -0.666924 0.554247 -0.735334
v -0.666924 0.054247 -0.733323
v -0.766924 0.054247 -0.551396
v -0.666924 -0.097189 -0.443957
v -0.766924 0.054247 0.889167
v -0.666924 0.054247 1.052891
v -0.666924 -0.097189 0.730180
v -0.766924 0.554247 0.885922
v -0.666924 0.554247 1.050707
v 1.433076 0.054247 0.889167
v 1.333076 0.054247 1.052891
v 1.349256 0.554242 1.050798
v 1.433076 0.554247 0.885922
v 1.333076 -0.097189 0.730180
v 1.333076 -0.097189 -0.443957
v 1.433076 0.054247 -0.551396
v 1.333076 0.054247 -0.733323
v 1.334346 0.554242 -0.729263
v 1.433076 0.554247 -0.552658
v 1.333076 0.554247 1.172755
v -0.666924 0.554247 1.172755
v -0.666924 0.054247 1.350593
v -0.666924 -0.445753 1.317248
v -0.666924 -1.445753 1.172755
v 1.333076 -1.445753 1.172755
v 1.333076 0.054247 1.350593
v -0.666924 0.554247 -0.827245
v -0.666924 0.008290 -1.086602
v -0.666924 -1.445753 -0.827245
v 1.333076 0.008290 -1.086602
v 1.218801 0.008290 -1.086602
v 1.111459 0.322990 -0.935448
v 0.109457 0.322966 -0.935142
v 0.107653 0.008290 -1.086602
v 1.333076 0.554247 -0.827245
v 1.218187 0.007915 -0.827245
v 1.111693 0.322933 -0.827245
v 1.083076 -0.505865 -0.827245
v 1.082901 -0.506512 -0.996244
v 0.301343 -0.506512 -0.994662
v 0.300466 -0.505865 -0.827245
v 0.109550 -0.340961 -0.827245
v 0.107246 -0.339988 -1.024734
v 0.108596 0.323943 -0.827245
v 0.108596 0.009936 -0.827245
v 1.333076 -1.445753 -0.827245
v 1.333076 0.554247 1.050707
v -0.416924 -1.445753 -0.827245
v -0.416924 -1.445753 -0.577245
v 1.083076 -1.445753 -0.577245
v 1.083076 -1.445753 -0.827245
v -0.416924 -1.263997 -0.859665
v 1.083076 -1.263997 -0.859665
vt 0.071815 0.630921
vt 0.054088 0.630921
vt 0.071937 0.565460
vt 0.286213 0.071252
vt 0.286213 0.109136
vt 0.276509 0.095070
vt 0.276509 0.716331
vt 0.286213 0.694896
vt 0.286213 0.737146
vt 0.196303 0.545634
vt 0.211731 0.565460
vt 0.082363 0.545634
vt 0.211417 0.630921
vt 0.227619 0.565460
vt 0.480296 0.305104
vt 0.480296 0.262854
vt 0.490000 0.283669
vt 0.570206 0.545634
vt 0.684146 0.545634
vt 0.694572 0.565460
vt 0.480296 0.071252
vt 0.490000 0.095070
vt 0.480296 0.109136
vt 0.712226 0.565460
vt 0.711832 0.630920
vt 0.694694 0.630921
vt 0.555092 0.630921
vt 0.020000 0.559444
vt 0.045168 0.559395
vt 0.045168 0.600637
vt 0.045168 0.492130
vt 0.456035 0.941045
vt 0.456018 0.963170
vt 0.380090 0.941045
vt 0.361563 0.941045
vt 0.380175 0.962963
vt 0.458813 0.058955
vt 0.361471 0.058955
vt 0.458790 0.044789
vt 0.042022 0.392875
vt 0.045168 0.369079
vt 0.069429 0.369079
vt 0.310473 0.054711
vt 0.456035 0.054711
vt 0.310473 0.091685
vt 0.239251 0.369079
vt 0.310473 0.392875
vt 0.310473 0.369079
vt 0.286213 0.369079
vt 0.797696 0.600637
vt 0.895038 0.559659
vt 0.895038 0.600769
vt 0.797719 0.600644
vt 0.894955 0.600641
vt 0.787302 0.559444
vt 0.286213 0.500000
vt 0.480296 0.369079
vt 0.538889 0.565460
vt 0.539101 0.630921
vt 0.721341 0.513719
vt 0.721341 0.600769
vt 0.721341 0.559659
vt 0.480419 0.071783
vt 0.490000 0.283244
vt 0.490000 0.094904
vt 0.480296 0.058955
vt 0.480296 0.320797
vt 0.456035 0.058955
vt 0.054283 0.565460
vt 0.227408 0.630921
vt 0.227416 0.630920
vt 0.554777 0.565460
vt 0.034668 0.600644
vt 0.028768 0.492045
vt 0.361340 0.966900
vt 0.361554 0.044829
vt 0.456035 0.091685
vt 0.253273 0.500000
vt 0.239251 0.630921
vt 0.256509 0.565460
vt 0.045168 0.630921
vt 0.456035 0.392875
vt 0.456035 0.369079
vt 0.286213 0.559444
vt 0.361379 0.559444
vt 0.361340 0.513847
vt 0.480296 0.559444
vt 0.456018 0.492045
vt 0.469206 0.559444
vt 0.380175 0.492045
vt 0.787362 0.559395
vt 0.800473 0.492130
vt 0.876419 0.492130
vt 0.894946 0.513719
vt 0.895130 0.559444
vt 0.970296 0.559444
vt 0.970296 0.630921
vt 0.776213 0.630921
vt 0.776213 0.559444
vt 0.286213 0.565460
vt 0.286213 0.630921
vt 0.480296 0.565460
vt 0.480296 0.630921
vt 0.721341 0.630921
vt 0.527258 0.630921
vt 0.510000 0.565460
vt 0.527258 0.369079
vt 0.721341 0.369079
vt 0.746509 0.559444
vt 0.740505 0.513847
vt 0.731811 0.600641
vt 0.481866 0.304830
vt 0.480296 0.304818
vt 0.286213 0.320797
vt 0.286213 0.304818
vt 0.276509 0.283244
vt 0.286213 0.058955
vt 0.286213 0.070988
vt 0.276509 0.094904
vt 0.310473 0.058955
vn -0.877170 -0.001212 -0.480178
vn -0.644784 -0.677230 -0.354420
vn 0.570993 0.743195 -0.348753
vn -0.834477 -0.551043 -0.000000
vn -1.000000 0.000000 0.000000
vn -0.853401 0.003383 0.521244
vn -0.853401 -0.003383 -0.521244
vn 0.570993 -0.743195 0.348753
vn 0.834477 -0.551043 -0.000000
vn 0.644784 -0.677230 -0.354420
vn 0.876336 0.001685 -0.481697
vn 1.000000 -0.000000 0.000000
vn -0.947329 -0.320251 -0.002706
vn -0.967116 0.254327 -0.001922
vn 0.000000 0.999993 -0.003828
vn 0.653670 0.756780 0.000500
vn -0.001007 -0.999999 -0.000525
vn -0.000000 -0.840907 -0.541180
vn 0.000000 -0.175599 -0.984462
vn 0.000000 0.000000 -1.000000
vn 0.000286 -0.432880 0.901451
vn 0.000000 -0.143008 0.989721
vn -0.000007 -0.000000 1.000000
vn -0.000051 1.000000 0.000000
vn 0.000000 -1.000000 -0.000000
vn -0.876336 -0.001937 -0.481697
vn -0.854896 0.002266 0.518795
vn -0.891095 0.026940 -0.453016
vn 0.872861 -0.001232 -0.487968
vn -0.946180 -0.323636 0.001876
vn -0.966876 0.255245 0.000024
vn -0.000008 0.999992 -0.003864
vn 0.651481 0.758655 -0.003863
vn 0.000027 -0.999959 0.009055
vn -0.000000 0.175599 0.984462
vn 0.000000 -0.175598 -0.984462
vn -0.001069 0.174903 0.984585
vn 0.000000 -0.172877 -0.984943
vn 0.006918 -0.169894 -0.985438
vn -0.001992 -0.177087 -0.984193
vn 0.008931 -0.177079 -0.984156
vn 0.000000 -0.433698 0.901058
vn 0.000000 0.000000 0.000000
vn 0.000000 0.429094 -0.903260
vn 0.000000 0.335110 0.942179
vn 0.012876 -0.117724 0.992963
vn -0.052182 0.142813 0.988373
vn -0.999996 0.002529 0.001324
vn -0.999998 0.001950 0.000000
vn -1.000000 0.000351 -0.000714
vn -0.003930 -0.999992 -0.000000
vn 0.999927 -0.003244 -0.011682
vn 0.999921 -0.009615 0.008066
vn 0.999984 0.001435 -0.005382
vn -0.000059 1.000000 0.000001
vn -0.000000 1.000000 0.000000
vn 0.000333 0.999991 -0.004248
vn 0.000002 1.000000 0.000000
vn 0.000041 1.000000 0.000051
usemtl Material.001
s off
f 1/1/1 2/2/1 4/3/1
f 3/4/2 5/5/2 4/6/2
f 6/7/3 7/8/3 8/9/3
f 8/10/4 6/11/4 5/12/4
f 9/13/5 1/1/5 6/11/5
f 6/11/6 7/14/6 9/13/6
f 11/11/7 12/14/7 14/13/7
f 12/15/8 15/16/8 11/17/8
f 15/18/9 16/19/9 17/20/9
f 18/21/10 17/22/10 16/23/10
f 17/20/11 18/24/11 19/25/11
f 20/26/12 14/27/12 17/20/12
f 32/28/13 37/29/13 38/30/13
f 39/31/14 37/29/14 32/28/14
f 39/32/15 40/33/15 42/34/15
f 43/35/16 42/34/16 41/36/16
f 38/37/17 45/38/17 33/39/17
f 53/40/5 49/41/5 50/42/5
f 54/40/5 52/41/5 51/42/5
f 53/43/18 54/44/18 50/45/18
f 25/46/5 29/28/5 30/41/5
f 53/47/19 49/48/19 30/49/19
f 38/50/20 46/51/20 45/52/20
f 33/53/21 34/54/21 32/55/21
f 24/56/22 25/49/22 26/57/22
f 12/58/5 48/59/5 15/18/5
f 43/60/23 45/61/23 46/62/23
f 19/63/24 14/64/24 20/65/24
f 47/66/25 26/67/25 52/68/25
f 2/2/26 3/69/26 4/3/26
f 6/11/4 4/3/4 5/12/4
f 1/1/5 4/3/5 6/11/5
f 7/14/27 10/70/27 9/13/27
f 12/14/28 13/71/28 14/13/28
f 11/72/9 15/18/9 17/20/9
f 20/26/29 17/20/29 19/25/29
f 14/27/12 11/72/12 17/20/12
f 33/73/30 32/28/30 38/30/30
f 40/74/31 39/31/31 32/28/31
f 40/33/32 41/36/32 42/34/32
f 44/75/33 43/35/33 41/36/33
f 45/38/34 34/76/34 33/39/34
f 54/44/18 51/77/18 50/45/18
f 25/46/5 24/78/5 29/28/5
f 7/14/5 22/79/5 10/70/5
f 23/80/5 22/79/5 7/14/5
f 24/78/5 23/80/5 7/14/5
f 24/78/5 7/14/5 8/10/5
f 24/78/5 8/10/5 5/12/5
f 28/81/5 3/69/5 2/2/5
f 29/28/5 24/78/5 5/12/5
f 28/81/5 29/28/5 3/69/5
f 29/28/5 5/12/5 3/69/5
f 54/82/35 53/47/35 52/83/35
f 53/47/35 30/49/35 52/83/35
f 30/49/36 29/84/36 52/83/36
f 29/84/36 35/85/36 52/83/36
f 35/85/37 44/86/37 52/83/37
f 31/87/38 40/88/38 32/89/38
f 52/83/36 31/87/36 47/57/36
f 44/86/39 41/90/39 52/83/39
f 41/90/40 40/88/40 52/83/40
f 40/88/41 31/87/41 52/83/41
f 38/50/20 37/91/20 46/51/20
f 37/91/20 39/92/20 46/51/20
f 39/92/20 42/93/20 43/94/20
f 46/51/20 39/92/20 43/94/20
f 34/54/42 35/95/42 32/55/42
f 35/95/43 29/96/43 32/55/43
f 29/96/44 28/97/44 32/55/44
f 28/97/44 36/98/44 32/55/44
f 36/98/44 31/99/44 32/55/44
f 23/100/12 24/56/12 22/101/12
f 22/101/45 27/102/45 21/103/45
f 24/56/46 26/57/46 27/102/46
f 22/101/47 24/56/47 27/102/47
f 16/19/48 19/25/48 18/24/48
f 15/18/49 19/25/49 16/19/49
f 15/18/50 48/59/50 19/25/50
f 19/25/51 48/59/51 36/104/51
f 48/59/5 21/105/5 36/104/5
f 21/105/12 27/106/12 36/104/12
f 27/106/12 26/107/12 36/104/12
f 26/107/12 47/108/12 36/104/12
f 47/108/12 31/109/12 36/104/12
f 44/110/52 35/109/52 43/60/52
f 35/109/53 34/111/53 45/61/53
f 43/60/54 35/109/54 45/61/54
f 19/63/55 13/112/55 14/64/55
f 21/67/56 48/113/56 22/114/56
f 22/114/56 48/113/56 10/115/56
f 10/115/56 48/113/56 9/116/56
f 48/113/57 13/112/57 9/116/57
f 13/112/58 19/63/58 9/116/58
f 19/63/59 36/66/59 9/116/59
f 36/66/56 28/117/56 9/116/56
f 28/117/25 2/118/25 1/119/25
f 9/116/56 28/117/56 1/119/56
f 26/67/25 25/114/25 52/68/25
f 25/114/25 30/117/25 49/120/25
f 52/68/25 25/114/25 49/120/25
f 51/77/56 52/68/56 49/120/56
f 50/45/56 51/77/56 49/120/56
